<?xml version="1.0" standalone="no"?>
<!DOCTYPE svg PUBLIC "-//W3C//DTD SVG 20010904//EN"
 "http://www.w3.org/TR/2001/REC-SVG-20010904/DTD/svg10.dtd">
<svg version="1.0" xmlns="http://www.w3.org/2000/svg"
 width="1330.000000pt" height="1330.000000pt" viewBox="0 0 1330.000000 1330.000000"
 preserveAspectRatio="xMidYMid meet">

<g transform="translate(0.000000,1330.000000) scale(0.100000,-0.100000)"
fill="#386d55" stroke="none">
<path d="M6150 10664 c-1226 -102 -2345 -729 -3092 -1732 -336 -452 -592
-1018 -712 -1575 -69 -319 -90 -566 -83 -957 7 -360 34 -575 112 -894 182
-743 557 -1410 1099 -1952 688 -687 1583 -1112 2556 -1211 218 -22 608 -22
821 0 968 103 1826 504 2508 1172 476 466 817 1006 1030 1631 122 357 211 827
198 1038 -19 311 -228 570 -537 668 l-75 23 -1885 0 -1885 0 -150 -23 c-613
-95 -1145 -358 -1594 -787 -140 -134 -334 -375 -436 -543 -22 -37 -42 -59 -47
-54 -13 13 -74 178 -104 280 -122 418 -139 881 -49 1297 79 367 262 754 504
1065 93 120 308 338 431 437 446 360 982 571 1565 617 39 3 1014 6 2168 6
l2097 0 0 755 0 755 -2137 -1 c-1715 -1 -2171 -4 -2303 -15z m2685 -5321 c-10
-41 -108 -212 -196 -343 -683 -1013 -2004 -1430 -3151 -994 -118 44 -366 163
-371 178 -8 21 42 214 82 318 120 307 363 573 661 723 129 65 326 124 460 138
19 2 595 5 1279 5 l1243 2 -7 -27z"/>
</g>
</svg>
